<?xml version="1.0" encoding="utf-8"?>
<svg xmlns="http://www.w3.org/2000/svg" xmlns:xlink="http://www.w3.org/1999/xlink" viewBox="0 0 160 162" width="160" height="162"><defs>
<style>
    #cube1{
    animation: cube 4s infinite linear  both ; 
    }
    #cube2{
    animation: cube 4s infinite linear .5s both ; 
    }
    #cube3{
    animation: cube 4s infinite linear 1s both ; 
    }
    #cube4{
    animation: cube 4s infinite linear 1.5s both ; 
    }
    #cube5{
    animation: cube 4s infinite linear 2s both ; 
    }
    @keyframes cube{
        0%   {transform: translateY(0px);} 
        50%  {transform: translateY(-3px);}
        100% {transform: translateY(0px);}
    }
    .bi2-1{fill:url(#bi2-g);}
    .bi2-13,.bi2-2,.bi2-7{opacity:0.6;}
    .bi2-3{fill:#293549;}
    .bi2-15,.bi2-4{opacity:0.4;}
    .bi2-5{fill:#202a42;}
    .bi2-6{fill:url(#bi2-g_2);}
    .bi2-7{fill:url(#ray-g);}
    .bi-bg{fill:#28bdeb;opacity:0.06;}
    .bi2-9{fill:url(#bi2-g_2-2);}.bi2-10{opacity:0.3;}
    .bi2-11{fill:#70e5f9;}
    .bi2-12{opacity:0.7;}
    .bi2-13,.bi2-14{fill:none;stroke-linecap:round;stroke-linejoin:round;}
    .bi2-13{stroke-width:1.6px;stroke:url(#bi2-g_4);}
    .bi2-14{stroke-width:1.4px;opacity:0.8;stroke:url(#bi2-g_5);}
    .bi2-15{fill:url(#bi2-g_4-2);}
</style>
<linearGradient id="bi2-g" x1="-1309.5" y1="1204.5" x2="-1265.5" y2="1204.5" gradientTransform="matrix(0, 1, 1, 0, -1185.5, 1309.5)" gradientUnits="userSpaceOnUse"><stop offset="0" stop-color="#456e99"/>
<stop offset="1" stop-color="#202a42"/></linearGradient><linearGradient id="bi2-g_2" x1="7.96" y1="46.53" x2="8.18" y2="51.97" gradientUnits="userSpaceOnUse"><stop offset="0" stop-color="#70e5f9"/><stop offset="1" stop-color="#28bdeb"/></linearGradient>

<linearGradient id="ray-g" x1="16" y1="52" x2="0" y2="0" gradientUnits="userSpaceOnUse">
    <stop offset="0" stop-color="#28bdeb"/>
    <stop offset="0.6" stop-color="#70e5f9" stop-opacity="0"/>
</linearGradient>

<linearGradient id="bi2-g_2-2" x1="76.58" y1="64.86" x2="120.92" y2="64.86" gradientTransform="translate(145.5 -24.75) rotate(90)" xlink:href="#bi2-g_2"/><linearGradient id="bi2-g_4" x1="107.9" y1="103.06" x2="120.55" y2="103.06" gradientUnits="userSpaceOnUse"><stop offset="0" stop-color="#0d55a1"/><stop offset="1" stop-color="#0f0e9f"/></linearGradient><linearGradient id="bi2-g_5" x1="121.62" y1="122.43" x2="125.09" y2="118.04" gradientUnits="userSpaceOnUse"><stop offset="0.15" stop-color="#70e5f9"/><stop offset="0.73" stop-color="#28bdeb"/></linearGradient><linearGradient id="bi2-g_4-2" x1="63.02" y1="16.93" x2="63.55" y2="12.81" xlink:href="#bi2-g_4"/>

<symbol id="Cube" data-name="Cube" viewBox="0 0 38 44">
    <polygon class="bi2-1" points="0 33 0 11 19 0 38 11 38 33 19 44 0 33"/>
    <g class="bi2-2"><path class="bi2-3" d="M19.75,43.43,37.42,33.28a1.13,1.13,0,0,0,.58-1V12a.5.5,0,0,0-.76-.43L19.56,22A1.15,1.15,0,0,0,19,23V43A.5.5,0,0,0,19.75,43.43Z"/></g>

    <g class="bi2-4"><path class="bi2-5" d="M25.42,34.68l7.09-4.22A1,1,0,0,0,33,29.6v-8a.28.28,0,0,0-.42-.24l-7.09,4.22a1,1,0,0,0-.49.86v8A.28.28,0,0,0,25.42,34.68Z"/></g>
    <g class="bi2-4"><path class="bi2-5" d="M12.58,34.68,5.49,30.46A1,1,0,0,1,5,29.6v-8a.28.28,0,0,1,.42-.24l7.09,4.22a1,1,0,0,1,.49.86v8A.28.28,0,0,1,12.58,34.68Z"/></g>
    <g class="bi2-4"><path class="bi2-5" d="M11.15,11.25l7.46,4.12a1,1,0,0,0,1,0l7.22-4.11a.29.29,0,0,0,0-.5L19.39,6.63a1,1,0,0,0-1,0l-7.22,4.11A.29.29,0,0,0,11.15,11.25Z"/></g>
</symbol>
<symbol id="ray" data-name="ray" viewBox="0 0 16 52">
    <path class="bi2-6" d="M.15,47.75l7.46,4.12a1,1,0,0,0,1,0l7.22-4.11a.29.29,0,0,0,0-.5L8.39,43.13a1,1,0,0,0-1,0L.14,47.25A.29.29,0,0,0,.15,47.75Z"/>
    <path class="bi2-7" d="M16,47.54a.3.3,0,0,1-.14.21l-7.2,4.12a1.13,1.13,0,0,1-1.07,0L.15,47.75A.29.29,0,0,1,0,47.47V0H16Z"/>
</symbol>
</defs>

<path class="bi-bg" d="M71.6,159.26,29.84,144.08A45.22,45.22,0,0,1,0,100L1.62,55.76A45.27,45.27,0,0,1,34.54,13.9L77.28,1.74A45.53,45.53,0,0,1,127.44,20l24.82,36.71a45,45,0,0,1-1.92,53.12l-27.4,34.85A45.55,45.55,0,0,1,71.6,159.26Z"/>

<g id="cube3">
    <polygon class="bi2-9" points="99.84 85.09 99.84 62.92 80.64 51.83 61.44 62.92 61.44 85.09 80.64 96.17 99.84 85.09"/><g class="bi2-10"><path class="bi2-11" d="M87,86l7-4.19a1,1,0,0,0,.48-.86V73a.28.28,0,0,0-.42-.23l-7,4.19a1,1,0,0,0-.49.86v8A.28.28,0,0,0,87,86Z"/></g><g class="bi2-12"><path class="bi2-11" d="M75.21,86l-7-4.19a1,1,0,0,1-.49-.86V73a.28.28,0,0,1,.42-.23l7,4.19a1,1,0,0,1,.49.86v8A.28.28,0,0,1,75.21,86Z"/></g><g class="bi2-12"><path class="bi2-11" d="M73.11,63.14l7.16,4a1,1,0,0,0,1,0l6.92-4a.28.28,0,0,0,0-.48l-7.16-4a1,1,0,0,0-1,0l-6.92,4A.28.28,0,0,0,73.11,63.14Z"/></g>
</g>

<polygon class="bi2-13" points="119.75 98.27 114.23 107.85 108.7 98.27 119.75 98.27"/><rect class="bi2-14" x="121.86" y="118.75" width="2.99" height="2.99"/><path class="bi2-15" d="M65.7,15.27h-2v-2a.53.53,0,1,0-1.06,0v2h-2a.54.54,0,1,0,0,1.07h2v2a.53.53,0,0,0,1.06,0v-2h2a.54.54,0,0,0,0-1.07Z"/>

<g id="cube1">
    <use width="38" height="44" transform="translate(17 25)" xlink:href="#Cube"/>
    <use width="16" height="52" transform="matrix(-0.5, 0.87, -0.86, -0.5, 91, 70.01)" xlink:href="#ray"/>
</g>

<g id="cube4">
    <use id="Cube-5" data-name="Cube" width="38" height="44" transform="translate(17 83)" xlink:href="#Cube"/>
    <use width="16" height="52" transform="translate(28 46.5)" xlink:href="#ray"/>
    <use width="16" height="52" transform="matrix(-0.50,0.87,-0.87,-0.50,91,127)" xlink:href="#ray"/>
</g>

<g id="cube5">
<use width="38" height="44" transform="translate(62 109)" xlink:href="#Cube"/><use width="16" height="52" transform="translate(73 72.5)" xlink:href="#ray"/>
</g>
<g id="cube2">
<use width="16" height="52" transform="translate(131 109) rotate(180)" xlink:href="#ray"/><use width="16" height="52" transform="matrix(0.51, -0.87, 0.88, 0.5, 69, 26.99)" xlink:href="#ray"/>
<use width="38" height="44" transform="translate(104 29)" xlink:href="#Cube"/><use width="16" height="52" transform="matrix(-0.5, -0.88, 0.86, -0.5, 76.06, 88)" xlink:href="#ray"/>
</g>
</svg>